{
  "accessors": [
    {
      "bufferView": 2,
      "componentType": 5126,
      "count": 56,
      "max": [
        6.714219570159912,
        28.342269897460938,
        3.972038745880127
      ],
      "min": [
        -7.401655197143555,
        -32.88105773925781,
        -0.23501229286193848
      ],
      "type": "VEC3"
    },
    {
      "bufferView": 2,
      "byteOffset": 672,
      "componentType": 5126,
      "count": 56,
      "max": [
        1.0,
        1.0,
        1.0
      ],
      "min": [
        -1.0,
        -1.0,
        -1.0
      ],
      "type": "VEC3"
    },
    {
      "bufferView": 3,
      "componentType": 5126,
      "count": 56,
      "max": [
        1.0,
        1.0,
        0.9927689433097839,
        1.0
      ],
      "min": [
        -1.0,
        -0.48052486777305603,
        -0.8839074373245239,
        1.0
      ],
      "type": "VEC4"
    },
    {
      "bufferView": 1,
      "componentType": 5126,
      "count": 56,
      "max": [
        0.9641124606132507,
        0.3927520215511322
      ],
      "min": [
        0.608912467956543,
        0.04265957325696945
      ],
      "type": "VEC2"
    },
    {
      "bufferView": 0,
      "componentType": 5125,
      "count": 84,
      "type": "SCALAR"
    },
    {
      "bufferView": 2,
      "byteOffset": 1344,
      "componentType": 5126,
      "count": 1721,
      "max": [
        66.00344848632813,
        28.229881286621094,
        3.5661723613739014
      ],
      "min": [
        -83.8121337890625,
        -6.434435844421387,
        -10.851791381835938
      ],
      "type": "VEC3"
    },
    {
      "bufferView": 2,
      "byteOffset": 21996,
      "componentType": 5126,
      "count": 1721,
      "max": [
        1.0,
        1.0,
        1.0
      ],
      "min": [
        -1.0,
        -1.0,
        -1.0
      ],
      "type": "VEC3"
    },
    {
      "bufferView": 3,
      "byteOffset": 896,
      "componentType": 5126,
      "count": 1721,
      "max": [
        1.0,
        1.0,
        1.0,
        1.0
      ],
      "min": [
        -1.0,
        -1.0,
        -1.0,
        -1.0
      ],
      "type": "VEC4"
    },
    {
      "bufferView": 1,
      "byteOffset": 448,
      "componentType": 5126,
      "count": 1721,
      "max": [
        0.9652005434036255,
        0.9799999594688416
      ],
      "min": [
        0.019999999552965164,
        0.019999999552965164
      ],
      "type": "VEC2"
    },
    {
      "bufferView": 0,
      "byteOffset": 336,
      "componentType": 5125,
      "count": 4149,
      "type": "SCALAR"
    },
    {
      "bufferView": 2,
      "byteOffset": 42648,
      "componentType": 5126,
      "count": 80,
      "max": [
        2.8269309997558594,
        5.177135467529297,
        2.9215359687805176
      ],
      "min": [
        -2.2912683486938477,
        -5.615680694580078,
        -0.9215359687805176
      ],
      "type": "VEC3"
    },
    {
      "bufferView": 2,
      "byteOffset": 43608,
      "componentType": 5126,
      "count": 80,
      "max": [
        0.99611496925354,
        0.7415357828140259,
        1.0
      ],
      "min": [
        -0.9980502128601074,
        -0.9974010586738586,
        -1.0
      ],
      "type": "VEC3"
    },
    {
      "bufferView": 1,
      "byteOffset": 14216,
      "componentType": 5126,
      "count": 80,
      "max": [
        0.9090674519538879,
        0.8879120349884033
      ],
      "min": [
        0.23368531465530396,
        0.08436880260705948
      ],
      "type": "VEC2"
    },
    {
      "bufferView": 0,
      "byteOffset": 16932,
      "componentType": 5125,
      "count": 210,
      "type": "SCALAR"
    },
    {
      "bufferView": 2,
      "byteOffset": 44568,
      "componentType": 5126,
      "count": 7072,
      "max": [
        116.56392669677734,
        33.79169464111328,
        7.298452377319336
      ],
      "min": [
        -88.54529571533203,
        -36.024696350097656,
        -7.281627655029297
      ],
      "type": "VEC3"
    },
    {
      "bufferView": 2,
      "byteOffset": 129432,
      "componentType": 5126,
      "count": 7072,
      "max": [
        1.0,
        1.0,
        1.0
      ],
      "min": [
        -1.0,
        -1.0,
        -1.0
      ],
      "type": "VEC3"
    },
    {
      "bufferView": 3,
      "byteOffset": 28432,
      "componentType": 5126,
      "count": 7072,
      "max": [
        1.0,
        1.0,
        1.0,
        1.0
      ],
      "min": [
        -1.0,
        -1.0,
        -0.9999997019767761,
        -1.0
      ],
      "type": "VEC4"
    },
    {
      "bufferView": 1,
      "byteOffset": 14856,
      "componentType": 5126,
      "count": 7072,
      "max": [
        0.9593306183815002,
        0.9799999594688416
      ],
      "min": [
        0.019999999552965164,
        0.019999999552965164
      ],
      "type": "VEC2"
    },
    {
      "bufferView": 0,
      "byteOffset": 17772,
      "componentType": 5125,
      "count": 13863,
      "type": "SCALAR"
    }
  ],
  "asset": {
    "extras": {
      "author": "Vinoskii (https://sketchfab.com/vinoskii)",
      "license": "CC-BY-4.0 (http://creativecommons.org/licenses/by/4.0/)",
      "source": "https://sketchfab.com/3d-models/ump-rebecca-edition-cyberpunk-fan-art-1d4aa6e412794bdd94bf7cd91b0902c4",
      "title": "UMP Rebecca Edition - Cyberpunk Fan Art"
    },
    "generator": "Sketchfab-14.15.0",
    "version": "2.0"
  },
  "bufferViews": [
    {
      "buffer": 0,
      "byteLength": 73224,
      "name": "floatBufferViews",
      "target": 34963
    },
    {
      "buffer": 0,
      "byteLength": 71432,
      "byteOffset": 73224,
      "byteStride": 8,
      "name": "floatBufferViews",
      "target": 34962
    },
    {
      "buffer": 0,
      "byteLength": 214296,
      "byteOffset": 144656,
      "byteStride": 12,
      "name": "floatBufferViews",
      "target": 34962
    },
    {
      "buffer": 0,
      "byteLength": 141584,
      "byteOffset": 358952,
      "byteStride": 16,
      "name": "floatBufferViews",
      "target": 34962
    }
  ],
  "buffers": [
    {
      "byteLength": 500536,
      "uri": "scene.bin"
    }
  ],
  "images": [
    {
      "uri": "textures/material_baseColor.png"
    },
    {
      "uri": "textures/material_metallicRoughness.png"
    },
    {
      "uri": "textures/material_normal.png"
    },
    {
      "uri": "textures/Parts_baseColor.png"
    },
    {
      "uri": "textures/Parts_metallicRoughness.png"
    },
    {
      "uri": "textures/Parts_normal.png"
    },
    {
      "uri": "textures/Base_baseColor.png"
    },
    {
      "uri": "textures/Base_metallicRoughness.png"
    },
    {
      "uri": "textures/Base_normal.png"
    }
  ],
  "materials": [
    {
      "doubleSided": true,
      "name": "material",
      "normalTexture": {
        "index": 2
      },
      "occlusionTexture": {
        "index": 1
      },
      "pbrMetallicRoughness": {
        "baseColorTexture": {
          "index": 0
        },
        "metallicRoughnessTexture": {
          "index": 1
        }
      }
    },
    {
      "doubleSided": true,
      "name": "Parts",
      "normalTexture": {
        "index": 5
      },
      "occlusionTexture": {
        "index": 4
      },
      "pbrMetallicRoughness": {
        "baseColorTexture": {
          "index": 3
        },
        "metallicRoughnessTexture": {
          "index": 4
        }
      }
    },
    {
      "doubleSided": true,
      "name": "Trigger",
      "pbrMetallicRoughness": {
        "baseColorFactor": [
          0.6050236774737856,
          0.1356060842174899,
          0.4783616332786252,
          1.0
        ],
        "metallicFactor": 0.0,
        "roughnessFactor": 0.8929713596497552
      }
    },
    {
      "doubleSided": true,
      "name": "Base",
      "normalTexture": {
        "index": 8
      },
      "occlusionTexture": {
        "index": 7
      },
      "pbrMetallicRoughness": {
        "baseColorTexture": {
          "index": 6
        },
        "metallicRoughnessTexture": {
          "index": 7
        }
      }
    }
  ],
  "meshes": [
    {
      "name": "Box003_Mag_0",
      "primitives": [
        {
          "attributes": {
            "NORMAL": 1,
            "POSITION": 0,
            "TANGENT": 2,
            "TEXCOORD_0": 3
          },
          "indices": 4,
          "material": 0,
          "mode": 4
        }
      ]
    },
    {
      "name": "Box005_Parts_0",
      "primitives": [
        {
          "attributes": {
            "NORMAL": 6,
            "POSITION": 5,
            "TANGENT": 7,
            "TEXCOORD_0": 8
          },
          "indices": 9,
          "material": 1,
          "mode": 4
        }
      ]
    },
    {
      "name": "Line002_Trigger_0",
      "primitives": [
        {
          "attributes": {
            "NORMAL": 11,
            "POSITION": 10,
            "TEXCOORD_0": 12
          },
          "indices": 13,
          "material": 2,
          "mode": 4
        }
      ]
    },
    {
      "name": "Line001_Base_0",
      "primitives": [
        {
          "attributes": {
            "NORMAL": 15,
            "POSITION": 14,
            "TANGENT": 16,
            "TEXCOORD_0": 17
          },
          "indices": 18,
          "material": 3,
          "mode": 4
        }
      ]
    }
  ],
  "nodes": [
    {
      "children": [
        1
      ],
      "matrix": [
        1.0,
        0.0,
        0.0,
        0.0,
        0.0,
        -5.053215392444312e-16,
        1.0,
        0.0,
        0.0,
        -1.0,
        -5.053215392444312e-16,
        0.0,
        0.0,
        0.0,
        0.0,
        1.0
      ],
      "name": "Sketchfab_model"
    },
    {
      "children": [
        2
      ],
      "matrix": [
        0.009999999776482582,
        0.0,
        0.0,
        0.0,
        0.0,
        -0.009999999776482582,
        0.0,
        0.0,
        0.0,
        0.0,
        -0.009999999776482582,
        0.0,
        0.0,
        0.0,
        0.0,
        1.0
      ],
      "name": "UMP.FBX"
    },
    {
      "children": [
        3
      ],
      "name": "RootNode"
    },
    {
      "children": [
        4,
        7,
        9,
        12
      ],
      "matrix": [
        2.5399999618530273,
        0.0,
        0.0,
        0.0,
        0.0,
        2.5399999618530273,
        0.0,
        0.0,
        0.0,
        0.0,
        2.5399999618530273,
        0.0,
        37.7765998840332,
        -0.6416711211204529,
        135.96961975097656,
        1.0
      ],
      "name": "UMP"
    },
    {
      "children": [
        5
      ],
      "matrix": [
        0.9835344621579144,
        -1.3877787807814457e-17,
        -0.18072067327160468,
        0.0,
        0.18072067327160224,
        -1.6292067206435945e-07,
        0.9835344621579014,
        0.0,
        -6.074945973473519e-08,
        -2.0632810592651096,
        -3.306162273334063e-07,
        0.0,
        -41.21528625488281,
        0.2526264190673828,
        -18.529502868652344,
        1.0
      ],
      "name": "Box003"
    },
    {
      "children": [
        6
      ],
      "matrix": [
        1.0,
        0.0,
        -0.0,
        0.0,
        0.0,
        1.0,
        0.0,
        0.0,
        0.0,
        0.0,
        1.0,
        0.0,
        6.63829080477262e-15,
        -3.2926504900388e-07,
        -1.86851274967194,
        1.0
      ],
      "name": "Object_5"
    },
    {
      "mesh": 0,
      "name": "Box003_Mag_0"
    },
    {
      "children": [
        8
      ],
      "matrix": [
        1.0,
        0.0,
        0.0,
        0.0,
        0.0,
        -1.629206838327235e-07,
        0.9999999999999868,
        0.0,
        0.0,
        -0.9999999999999868,
        -1.629206838327235e-07,
        0.0,
        -23.260602951049805,
        -3.9680776596069336,
        21.595733642578125,
        1.0
      ],
      "name": "Box005"
    },
    {
      "mesh": 1,
      "name": "Box005_Parts_0"
    },
    {
      "children": [
        10
      ],
      "matrix": [
        1.0,
        0.0,
        0.0,
        0.0,
        0.0,
        -1.629206838327235e-07,
        0.9999999999999868,
        0.0,
        0.0,
        -0.9999999999999868,
        -1.629206838327235e-07,
        0.0,
        -1.7919044494628906,
        0.2526264190673828,
        8.191619873046875,
        1.0
      ],
      "name": "Line002"
    },
    {
      "children": [
        11
      ],
      "matrix": [
        1.0,
        0.0,
        -0.0,
        0.0,
        0.0,
        1.0,
        0.0,
        0.0,
        0.0,
        0.0,
        1.0,
        0.0,
        -0.267831802368164,
        0.219272568821907,
        -1.0,
        1.0
      ],
      "name": "Object_10"
    },
    {
      "mesh": 2,
      "name": "Line002_Trigger_0"
    },
    {
      "children": [
        13
      ],
      "matrix": [
        1.0,
        0.0,
        0.0,
        0.0,
        0.0,
        -1.629206838327235e-07,
        0.9999999999999868,
        0.0,
        0.0,
        -0.9999999999999868,
        -1.629206838327235e-07,
        0.0,
        -9.491189956665039,
        0.2526264190673828,
        18.290863037109375,
        1.0
      ],
      "name": "Line001"
    },
    {
      "mesh": 3,
      "name": "Line001_Base_0"
    }
  ],
  "samplers": [
    {
      "magFilter": 9729,
      "minFilter": 9987,
      "wrapS": 10497,
      "wrapT": 10497
    }
  ],
  "scene": 0,
  "scenes": [
    {
      "name": "Sketchfab_Scene",
      "nodes": [
        0
      ]
    }
  ],
  "textures": [
    {
      "sampler": 0,
      "source": 0
    },
    {
      "sampler": 0,
      "source": 1
    },
    {
      "sampler": 0,
      "source": 2
    },
    {
      "sampler": 0,
      "source": 3
    },
    {
      "sampler": 0,
      "source": 4
    },
    {
      "sampler": 0,
      "source": 5
    },
    {
      "sampler": 0,
      "source": 6
    },
    {
      "sampler": 0,
      "source": 7
    },
    {
      "sampler": 0,
      "source": 8
    }
  ]
}
