{
  "accessors": [
    {
      "bufferView": 2,
      "componentType": 5126,
      "count": 11534,
      "max": [
        4.7002434730529785,
        1.3027763366699219,
        2.971043825149536
      ],
      "min": [
        -4.71624231338501,
        -1.757991075515747,
        -3.5938193798065186
      ],
      "type": "VEC3"
    },
    {
      "bufferView": 2,
      "byteOffset": 138408,
      "componentType": 5126,
      "count": 11534,
      "max": [
        0.9997782707214355,
        0.9999885559082031,
        1.0
      ],
      "min": [
        -0.9993946552276611,
        -0.9999785423278809,
        -0.9967381954193115
      ],
      "type": "VEC3"
    },
    {
      "bufferView": 3,
      "componentType": 5126,
      "count": 11534,
      "max": [
        0.9999417066574097,
        0.9999659657478333,
        0.999850332736969,
        1.0
      ],
      "min": [
        -1.0,
        -0.9998739361763,
        -0.9999982118606567,
        -1.0
      ],
      "type": "VEC4"
    },
    {
      "bufferView": 1,
      "componentType": 5126,
      "count": 11534,
      "max": [
        0.9940613508224487,
        0.9962183237075806
      ],
      "min": [
        0.004255518317222595,
        0.005328176077455282
      ],
      "type": "VEC2"
    },
    {
      "bufferView": 1,
      "byteOffset": 92272,
      "componentType": 5126,
      "count": 11534,
      "max": [
        0.9940613508224487,
        0.9962183237075806
      ],
      "min": [
        0.004255518317222595,
        0.005328176077455282
      ],
      "type": "VEC2"
    },
    {
      "bufferView": 1,
      "byteOffset": 184544,
      "componentType": 5126,
      "count": 11534,
      "max": [
        0.9940613508224487,
        0.9962183237075806
      ],
      "min": [
        0.004255518317222595,
        0.005328176077455282
      ],
      "type": "VEC2"
    },
    {
      "bufferView": 1,
      "byteOffset": 276816,
      "componentType": 5126,
      "count": 11534,
      "max": [
        0.9940613508224487,
        0.9962183237075806
      ],
      "min": [
        0.004255518317222595,
        0.005328176077455282
      ],
      "type": "VEC2"
    },
    {
      "bufferView": 0,
      "componentType": 5125,
      "count": 50664,
      "type": "SCALAR"
    }
  ],
  "asset": {
    "extras": {
      "author": "Andromeda (https://sketchfab.com/div.andromeda)",
      "license": "CC-BY-4.0 (http://creativecommons.org/licenses/by/4.0/)",
      "source": "https://sketchfab.com/3d-models/cyberpunk-2077-vs-jacket-d8caad07019141a0963aa66abb0efbf7",
      "title": "Cyberpunk 2077 - V's Jacket"
    },
    "generator": "Sketchfab-12.68.0",
    "version": "2.0"
  },
  "bufferViews": [
    {
      "buffer": 0,
      "byteLength": 202656,
      "name": "floatBufferViews",
      "target": 34963
    },
    {
      "buffer": 0,
      "byteLength": 369088,
      "byteOffset": 202656,
      "byteStride": 8,
      "name": "floatBufferViews",
      "target": 34962
    },
    {
      "buffer": 0,
      "byteLength": 276816,
      "byteOffset": 571744,
      "byteStride": 12,
      "name": "floatBufferViews",
      "target": 34962
    },
    {
      "buffer": 0,
      "byteLength": 184544,
      "byteOffset": 848560,
      "byteStride": 16,
      "name": "floatBufferViews",
      "target": 34962
    }
  ],
  "buffers": [
    {
      "byteLength": 1033104,
      "uri": "scene.bin"
    }
  ],
  "images": [
    {
      "uri": "textures/V_jacket_mat_baseColor.png"
    },
    {
      "uri": "textures/V_jacket_mat_metallicRoughness.png"
    },
    {
      "uri": "textures/V_jacket_mat_emissive.png"
    },
    {
      "uri": "textures/V_jacket_mat_normal.png"
    }
  ],
  "materials": [
    {
      "doubleSided": true,
      "emissiveFactor": [
        1.0,
        1.0,
        1.0
      ],
      "emissiveTexture": {
        "index": 2
      },
      "name": "V_jacket_mat",
      "normalTexture": {
        "index": 3
      },
      "pbrMetallicRoughness": {
        "baseColorTexture": {
          "index": 0
        },
        "metallicRoughnessTexture": {
          "index": 1
        }
      }
    }
  ],
  "meshes": [
    {
      "name": "V_jacket_V_jacket_mat_0",
      "primitives": [
        {
          "attributes": {
            "NORMAL": 1,
            "POSITION": 0,
            "TANGENT": 2,
            "TEXCOORD_0": 3,
            "TEXCOORD_1": 4,
            "TEXCOORD_2": 5,
            "TEXCOORD_3": 6
          },
          "indices": 7,
          "material": 0,
          "mode": 4
        }
      ]
    }
  ],
  "nodes": [
    {
      "children": [
        1
      ],
      "matrix": [
        1.0,
        0.0,
        0.0,
        0.0,
        0.0,
        2.220446049250313e-16,
        -1.0,
        0.0,
        0.0,
        1.0,
        2.220446049250313e-16,
        0.0,
        0.0,
        0.0,
        0.0,
        1.0
      ],
      "name": "Sketchfab_model"
    },
    {
      "children": [
        2
      ],
      "matrix": [
        0.009999999776482582,
        0.0,
        0.0,
        0.0,
        0.0,
        0.0,
        0.009999999776482582,
        0.0,
        0.0,
        -0.009999999776482582,
        0.0,
        0.0,
        0.0,
        0.0,
        0.0,
        1.0
      ],
      "name": "bf7da7b53bd149259547cc9d1fd8f43d.fbx"
    },
    {
      "children": [
        3
      ],
      "name": "RootNode"
    },
    {
      "children": [
        4
      ],
      "matrix": [
        100.0,
        0.0,
        0.0,
        0.0,
        0.0,
        -1.629206793918314e-05,
        -99.99999999999868,
        0.0,
        0.0,
        99.99999999999868,
        -1.629206793918314e-05,
        0.0,
        0.0,
        0.0,
        0.0,
        1.0
      ],
      "name": "V_jacket"
    },
    {
      "mesh": 0,
      "name": "V_jacket_V_jacket_mat_0"
    }
  ],
  "samplers": [
    {
      "magFilter": 9729,
      "minFilter": 9987,
      "wrapS": 10497,
      "wrapT": 10497
    }
  ],
  "scene": 0,
  "scenes": [
    {
      "name": "Sketchfab_Scene",
      "nodes": [
        0
      ]
    }
  ],
  "textures": [
    {
      "sampler": 0,
      "source": 0
    },
    {
      "sampler": 0,
      "source": 1
    },
    {
      "sampler": 0,
      "source": 2
    },
    {
      "sampler": 0,
      "source": 3
    }
  ]
}
