{
  "accessors": [
    {
      "bufferView": 2,
      "componentType": 5126,
      "count": 14550,
      "max": [
        9.176429748535156,
        14.507522583007813,
        10.270895957946777
      ],
      "min": [
        0.6525608897209167,
        -0.09490466117858887,
        -10.562119483947754
      ],
      "type": "VEC3"
    },
    {
      "bufferView": 2,
      "byteOffset": 174600,
      "componentType": 5126,
      "count": 14550,
      "max": [
        0.9999992847442627,
        1.0,
        0.9999678730964661
      ],
      "min": [
        -0.9999842047691345,
        -1.0,
        -0.9999619126319885
      ],
      "type": "VEC3"
    },
    {
      "bufferView": 1,
      "componentType": 5126,
      "count": 14550,
      "max": [
        0.9882934093475342,
        0.9881389737129211
      ],
      "min": [
        0.015084399841725826,
        0.014947712421417236
      ],
      "type": "VEC2"
    },
    {
      "bufferView": 0,
      "componentType": 5125,
      "count": 79464,
      "type": "SCALAR"
    },
    {
      "bufferView": 2,
      "byteOffset": 349200,
      "componentType": 5126,
      "count": 14550,
      "max": [
        -0.6525609493255615,
        14.507522583007813,
        10.270895957946777
      ],
      "min": [
        -9.176429748535156,
        -0.09490466117858887,
        -10.562119483947754
      ],
      "type": "VEC3"
    },
    {
      "bufferView": 2,
      "byteOffset": 523800,
      "componentType": 5126,
      "count": 14550,
      "max": [
        0.9999842047691345,
        1.0,
        0.9999678730964661
      ],
      "min": [
        -0.9999992847442627,
        -1.0,
        -0.9999619126319885
      ],
      "type": "VEC3"
    },
    {
      "bufferView": 1,
      "byteOffset": 116400,
      "componentType": 5126,
      "count": 14550,
      "max": [
        0.9882934093475342,
        0.9881389737129211
      ],
      "min": [
        0.015084399841725826,
        0.014947712421417236
      ],
      "type": "VEC2"
    },
    {
      "bufferView": 0,
      "byteOffset": 317856,
      "componentType": 5125,
      "count": 79464,
      "type": "SCALAR"
    }
  ],
  "asset": {
    "extras": {
      "author": "Vincent Page (https://sketchfab.com/vincentpage)",
      "license": "CC-BY-4.0 (http://creativecommons.org/licenses/by/4.0/)",
      "source": "https://sketchfab.com/3d-models/cyberpunk-fashion-sneaker-4-urban-techwear-0967795d0b6547f79d17025eeee62d55",
      "title": "Cyberpunk Fashion Sneaker 4 Urban Techwear"
    },
    "generator": "Sketchfab-16.53.0",
    "version": "2.0"
  },
  "bufferViews": [
    {
      "buffer": 0,
      "byteLength": 635712,
      "name": "floatBufferViews",
      "target": 34963
    },
    {
      "buffer": 0,
      "byteLength": 232800,
      "byteOffset": 635712,
      "byteStride": 8,
      "name": "floatBufferViews",
      "target": 34962
    },
    {
      "buffer": 0,
      "byteLength": 698400,
      "byteOffset": 868512,
      "byteStride": 12,
      "name": "floatBufferViews",
      "target": 34962
    }
  ],
  "buffers": [
    {
      "byteLength": 1566912,
      "uri": "scene.bin"
    }
  ],
  "extensionsUsed": [
    "KHR_materials_unlit"
  ],
  "images": [
    {
      "uri": "textures/lambert1_baseColor.jpeg"
    }
  ],
  "materials": [
    {
      "doubleSided": true,
      "extensions": {
        "KHR_materials_unlit": {}
      },
      "name": "lambert1",
      "pbrMetallicRoughness": {
        "baseColorTexture": {
          "index": 0
        },
        "metallicFactor": 0.0
      }
    }
  ],
  "meshes": [
    {
      "name": "Cyberpunk_fashion_sneaker_4_Urban_Techwear_scifi_future_shoes_footwear1_lambert1_0",
      "primitives": [
        {
          "attributes": {
            "NORMAL": 1,
            "POSITION": 0,
            "TEXCOORD_0": 2
          },
          "indices": 3,
          "material": 0,
          "mode": 4
        }
      ]
    },
    {
      "name": "Cyberpunk_fashion_sneaker_4_Urban_Techwear_scifi_future_shoes_footwear_lambert1_0",
      "primitives": [
        {
          "attributes": {
            "NORMAL": 5,
            "POSITION": 4,
            "TEXCOORD_0": 6
          },
          "indices": 7,
          "material": 0,
          "mode": 4
        }
      ]
    }
  ],
  "nodes": [
    {
      "children": [
        1
      ],
      "matrix": [
        1.0,
        0.0,
        0.0,
        0.0,
        0.0,
        2.220446049250313e-16,
        -1.0,
        0.0,
        0.0,
        1.0,
        2.220446049250313e-16,
        0.0,
        0.0,
        0.0,
        0.0,
        1.0
      ],
      "name": "Sketchfab_model"
    },
    {
      "children": [
        2
      ],
      "matrix": [
        0.009999999776482582,
        0.0,
        0.0,
        0.0,
        0.0,
        0.0,
        0.009999999776482582,
        0.0,
        0.0,
        -0.009999999776482582,
        0.0,
        0.0,
        0.0,
        0.0,
        0.0,
        1.0
      ],
      "name": "779501b9bfc94086ad3c1372fed7f210.fbx"
    },
    {
      "children": [
        3,
        5
      ],
      "name": "RootNode"
    },
    {
      "children": [
        4
      ],
      "name": "Cyberpunk_fashion_sneaker_4_Urban_Techwear_scifi_future_shoes_footwear1"
    },
    {
      "mesh": 0,
      "name": "Cyberpunk_fashion_sneaker_4_Urban_Techwear_scifi_future_shoes_footwear1_lambert1_0"
    },
    {
      "children": [
        6
      ],
      "name": "Cyberpunk_fashion_sneaker_4_Urban_Techwear_scifi_future_shoes_footwear"
    },
    {
      "mesh": 1,
      "name": "Cyberpunk_fashion_sneaker_4_Urban_Techwear_scifi_future_shoes_footwear_lambert1_0"
    }
  ],
  "samplers": [
    {
      "magFilter": 9729,
      "minFilter": 9987,
      "wrapS": 10497,
      "wrapT": 10497
    }
  ],
  "scene": 0,
  "scenes": [
    {
      "name": "Sketchfab_Scene",
      "nodes": [
        0
      ]
    }
  ],
  "textures": [
    {
      "sampler": 0,
      "source": 0
    }
  ]
}
