{
  "accessors": [
    {
      "bufferView": 2,
      "componentType": 5126,
      "count": 470,
      "max": [
        0.20055000483989716,
        0.29102998971939087,
        0.15025000274181366
      ],
      "min": [
        -0.2003600001335144,
        0.1498199999332428,
        0.10074000060558319
      ],
      "type": "VEC3"
    },
    {
      "bufferView": 2,
      "byteOffset": 5640,
      "componentType": 5126,
      "count": 470,
      "max": [
        0.9990524649620056,
        1.0,
        1.0
      ],
      "min": [
        -0.9990552663803101,
        -1.0,
        -1.0
      ],
      "type": "VEC3"
    },
    {
      "bufferView": 3,
      "componentType": 5126,
      "count": 470,
      "max": [
        1.0,
        0.9990452527999878,
        1.0,
        1.0
      ],
      "min": [
        -1.0,
        -0.9990551471710205,
        -1.0,
        1.0
      ],
      "type": "VEC4"
    },
    {
      "bufferView": 1,
      "componentType": 5126,
      "count": 470,
      "max": [
        0.8753399848937988,
        0.996749997138977
      ],
      "min": [
        0.002300000051036477,
        0.014430000446736813
      ],
      "type": "VEC2"
    },
    {
      "bufferView": 0,
      "componentType": 5125,
      "count": 1284,
      "type": "SCALAR"
    },
    {
      "bufferView": 2,
      "byteOffset": 11280,
      "componentType": 5126,
      "count": 160,
      "max": [
        0.05559000000357628,
        0.15974999964237213,
        0.0031999999191612005
      ],
      "min": [
        -0.055399999022483826,
        -0.854420006275177,
        -0.788640022277832
      ],
      "type": "VEC3"
    },
    {
      "bufferView": 2,
      "byteOffset": 13200,
      "componentType": 5126,
      "count": 160,
      "max": [
        0.827735185623169,
        0.9889678359031677,
        0.9879231452941895
      ],
      "min": [
        -0.827735185623169,
        -0.9889655709266663,
        -0.806990385055542
      ],
      "type": "VEC3"
    },
    {
      "bufferView": 3,
      "byteOffset": 7520,
      "componentType": 5126,
      "count": 160,
      "max": [
        0.9865865111351013,
        0.9933052659034729,
        0.9923622012138367,
        1.0
      ],
      "min": [
        -0.6529369354248047,
        -0.9795860648155212,
        -0.9885749220848083,
        1.0
      ],
      "type": "VEC4"
    },
    {
      "bufferView": 1,
      "byteOffset": 3760,
      "componentType": 5126,
      "count": 160,
      "max": [
        1.0,
        0.9323499798774719
      ],
      "min": [
        0.017330000177025795,
        0.036309998482465744
      ],
      "type": "VEC2"
    },
    {
      "bufferView": 0,
      "byteOffset": 5136,
      "componentType": 5125,
      "count": 372,
      "type": "SCALAR"
    },
    {
      "bufferView": 2,
      "byteOffset": 15120,
      "componentType": 5126,
      "count": 3241,
      "max": [
        0.22936999797821045,
        0.3159399926662445,
        0.8453599810600281
      ],
      "min": [
        -0.2291799932718277,
        -0.5979999899864197,
        -1.2148200273513794
      ],
      "type": "VEC3"
    },
    {
      "bufferView": 2,
      "byteOffset": 54012,
      "componentType": 5126,
      "count": 3241,
      "max": [
        1.0,
        1.0,
        1.0
      ],
      "min": [
        -1.0,
        -1.0,
        -0.9997332096099854
      ],
      "type": "VEC3"
    },
    {
      "bufferView": 3,
      "byteOffset": 10080,
      "componentType": 5126,
      "count": 3241,
      "max": [
        1.0,
        1.0,
        1.0,
        1.0
      ],
      "min": [
        -1.0,
        -1.0,
        -1.0,
        1.0
      ],
      "type": "VEC4"
    },
    {
      "bufferView": 1,
      "byteOffset": 5040,
      "componentType": 5126,
      "count": 3241,
      "max": [
        1.0,
        1.0
      ],
      "min": [
        0.0,
        0.0
      ],
      "type": "VEC2"
    },
    {
      "bufferView": 0,
      "byteOffset": 6624,
      "componentType": 5125,
      "count": 8808,
      "type": "SCALAR"
    },
    {
      "bufferView": 4,
      "componentType": 5126,
      "count": 39,
      "max": [
        1.5833300352096558
      ],
      "min": [
        0.0
      ],
      "type": "SCALAR"
    },
    {
      "bufferView": 5,
      "componentType": 5126,
      "count": 39,
      "max": [
        0.8385800123214722,
        0.032030001282691956,
        0.16313999891281128
      ],
      "min": [
        -0.010200000368058681,
        -0.332179993391037,
        0.0
      ],
      "type": "VEC3"
    },
    {
      "bufferView": 4,
      "byteOffset": 156,
      "componentType": 5126,
      "count": 39,
      "max": [
        1.5833300352096558
      ],
      "min": [
        0.0
      ],
      "type": "SCALAR"
    },
    {
      "bufferView": 6,
      "componentType": 5126,
      "count": 39,
      "max": [
        0.7071099877357483,
        0.42965999245643616,
        0.002570000011473894,
        0.788860023021698
      ],
      "min": [
        0.40762999653816223,
        -0.0036299999337643385,
        -0.4624300003051758,
        0.6702600121498108
      ],
      "type": "VEC4"
    },
    {
      "bufferView": 4,
      "byteOffset": 312,
      "componentType": 5126,
      "count": 7,
      "max": [
        1.5833300352096558
      ],
      "min": [
        0.0
      ],
      "type": "SCALAR"
    },
    {
      "bufferView": 5,
      "byteOffset": 468,
      "componentType": 5126,
      "count": 7,
      "max": [
        0.0,
        0.0,
        0.4000999927520752
      ],
      "min": [
        0.0,
        0.0,
        0.034210000187158585
      ],
      "type": "VEC3"
    },
    {
      "bufferView": 4,
      "byteOffset": 340,
      "componentType": 5126,
      "count": 1,
      "max": [
        0.0
      ],
      "min": [
        0.0
      ],
      "type": "SCALAR"
    },
    {
      "bufferView": 6,
      "byteOffset": 624,
      "componentType": 5126,
      "count": 1,
      "max": [
        -0.7071099877357483,
        0.0,
        0.0,
        0.7071099877357483
      ],
      "min": [
        -0.7071099877357483,
        0.0,
        0.0,
        0.7071099877357483
      ],
      "type": "VEC4"
    },
    {
      "bufferView": 4,
      "byteOffset": 344,
      "componentType": 5126,
      "count": 18,
      "max": [
        1.5833300352096558
      ],
      "min": [
        0.0
      ],
      "type": "SCALAR"
    },
    {
      "bufferView": 5,
      "byteOffset": 552,
      "componentType": 5126,
      "count": 18,
      "max": [
        0.2193399965763092,
        0.0,
        0.0
      ],
      "min": [
        -0.0020099999383091927,
        -1.2959599494934082,
        -1.0074000358581543
      ],
      "type": "VEC3"
    },
    {
      "bufferView": 4,
      "byteOffset": 416,
      "componentType": 5126,
      "count": 14,
      "max": [
        1.5833300352096558
      ],
      "min": [
        0.0
      ],
      "type": "SCALAR"
    },
    {
      "bufferView": 6,
      "byteOffset": 640,
      "componentType": 5126,
      "count": 14,
      "max": [
        0.04075000062584877,
        0.0,
        0.16082000732421875,
        1.0
      ],
      "min": [
        0.0,
        -0.036740001291036606,
        0.0,
        0.9854599833488464
      ],
      "type": "VEC4"
    }
  ],
  "animations": [
    {
      "channels": [
        {
          "sampler": 0,
          "target": {
            "node": 2,
            "path": "translation"
          }
        },
        {
          "sampler": 1,
          "target": {
            "node": 2,
            "path": "rotation"
          }
        },
        {
          "sampler": 2,
          "target": {
            "node": 3,
            "path": "translation"
          }
        },
        {
          "sampler": 3,
          "target": {
            "node": 3,
            "path": "rotation"
          }
        },
        {
          "sampler": 4,
          "target": {
            "node": 6,
            "path": "translation"
          }
        },
        {
          "sampler": 5,
          "target": {
            "node": 6,
            "path": "rotation"
          }
        }
      ],
      "name": "Reloading",
      "samplers": [
        {
          "input": 15,
          "interpolation": "LINEAR",
          "output": 16
        },
        {
          "input": 17,
          "interpolation": "LINEAR",
          "output": 18
        },
        {
          "input": 19,
          "interpolation": "LINEAR",
          "output": 20
        },
        {
          "input": 21,
          "interpolation": "LINEAR",
          "output": 22
        },
        {
          "input": 23,
          "interpolation": "LINEAR",
          "output": 24
        },
        {
          "input": 25,
          "interpolation": "LINEAR",
          "output": 26
        }
      ]
    }
  ],
  "asset": {
    "extras": {
      "author": "Léonard_Doye Alias Leoskateman (https://sketchfab.com/leoskateman)",
      "license": "CC-BY-4.0 (http://creativecommons.org/licenses/by/4.0/)",
      "source": "https://sketchfab.com/3d-models/cyberpunk-light-auto-gun-4a87c7587a824786a7e8eda2036e0665",
      "title": "Cyberpunk light auto gun"
    },
    "generator": "Sketchfab-12.68.0",
    "version": "2.0"
  },
  "bufferViews": [
    {
      "buffer": 0,
      "byteLength": 41856,
      "name": "floatBufferViews",
      "target": 34963
    },
    {
      "buffer": 0,
      "byteLength": 30968,
      "byteOffset": 41856,
      "byteStride": 8,
      "name": "floatBufferViews",
      "target": 34962
    },
    {
      "buffer": 0,
      "byteLength": 92904,
      "byteOffset": 72824,
      "byteStride": 12,
      "name": "floatBufferViews",
      "target": 34962
    },
    {
      "buffer": 0,
      "byteLength": 61936,
      "byteOffset": 165728,
      "byteStride": 16,
      "name": "floatBufferViews",
      "target": 34962
    },
    {
      "buffer": 0,
      "byteLength": 472,
      "byteOffset": 227664,
      "name": "floatBufferViews"
    },
    {
      "buffer": 0,
      "byteLength": 768,
      "byteOffset": 228136,
      "byteStride": 12,
      "name": "floatBufferViews"
    },
    {
      "buffer": 0,
      "byteLength": 864,
      "byteOffset": 228904,
      "byteStride": 16,
      "name": "floatBufferViews"
    }
  ],
  "buffers": [
    {
      "byteLength": 229768,
      "uri": "scene.bin"
    }
  ],
  "images": [
    {
      "uri": "textures/Material.001_baseColor.png"
    },
    {
      "uri": "textures/Material.001_metallicRoughness.png"
    },
    {
      "uri": "textures/Material.001_normal.png"
    }
  ],
  "materials": [
    {
      "doubleSided": true,
      "name": "Material.001",
      "normalTexture": {
        "index": 2
      },
      "pbrMetallicRoughness": {
        "baseColorTexture": {
          "index": 0
        },
        "metallicRoughnessTexture": {
          "index": 1
        }
      }
    }
  ],
  "meshes": [
    {
      "name": "Cube.009_Cube.006_0",
      "primitives": [
        {
          "attributes": {
            "NORMAL": 1,
            "POSITION": 0,
            "TANGENT": 2,
            "TEXCOORD_0": 3
          },
          "indices": 4,
          "material": 0,
          "mode": 4
        }
      ]
    },
    {
      "name": "Cube.009_Cube.004_0",
      "primitives": [
        {
          "attributes": {
            "NORMAL": 6,
            "POSITION": 5,
            "TANGENT": 7,
            "TEXCOORD_0": 8
          },
          "indices": 9,
          "material": 0,
          "mode": 4
        }
      ]
    },
    {
      "name": "Cube.009_Cube.007_0",
      "primitives": [
        {
          "attributes": {
            "NORMAL": 11,
            "POSITION": 10,
            "TANGENT": 12,
            "TEXCOORD_0": 13
          },
          "indices": 14,
          "material": 0,
          "mode": 4
        }
      ]
    }
  ],
  "nodes": [
    {
      "children": [
        1
      ],
      "matrix": [
        1.0,
        0.0,
        0.0,
        0.0,
        0.0,
        2.220446049250313e-16,
        -1.0,
        0.0,
        0.0,
        1.0,
        2.220446049250313e-16,
        0.0,
        0.0,
        0.0,
        0.0,
        1.0
      ],
      "name": "Sketchfab_model"
    },
    {
      "children": [
        2
      ],
      "name": "Root"
    },
    {
      "children": [
        3,
        6,
        9
      ],
      "name": "gun body",
      "rotation": [
        0.7071067690849304,
        0.0,
        0.0,
        0.7071067690849304
      ]
    },
    {
      "children": [
        4
      ],
      "name": "receiver bidule",
      "rotation": [
        -0.7071067690849304,
        0.0,
        0.0,
        0.7071067690849304
      ],
      "translation": [
        0.0,
        0.0,
        0.4000999927520752
      ]
    },
    {
      "children": [
        5
      ],
      "matrix": [
        1.0,
        0.0,
        0.0,
        0.0,
        0.0,
        -0.0,
        1.0,
        0.0,
        0.0,
        -1.0,
        -0.0,
        0.0,
        0.0,
        0.033610000000000015,
        0.0,
        1.0
      ],
      "name": "Cube.009_Cube.006"
    },
    {
      "mesh": 0,
      "name": "Cube.009_Cube.006_0"
    },
    {
      "children": [
        7
      ],
      "name": "magazine"
    },
    {
      "children": [
        8
      ],
      "name": "Cube.009_Cube.004"
    },
    {
      "mesh": 1,
      "name": "Cube.009_Cube.004_0"
    },
    {
      "children": [
        10
      ],
      "name": "Cube.009_Cube.007"
    },
    {
      "mesh": 2,
      "name": "Cube.009_Cube.007_0"
    }
  ],
  "samplers": [
    {
      "magFilter": 9729,
      "minFilter": 9987,
      "wrapS": 10497,
      "wrapT": 10497
    }
  ],
  "scene": 0,
  "scenes": [
    {
      "name": "Sketchfab_Scene",
      "nodes": [
        0
      ]
    }
  ],
  "textures": [
    {
      "sampler": 0,
      "source": 0
    },
    {
      "sampler": 0,
      "source": 1
    },
    {
      "sampler": 0,
      "source": 2
    }
  ]
}
